<svg width="149" height="36" viewBox="0 0 149 36" fill="none" xmlns="http://www.w3.org/2000/svg">
<path d="M65.8214 12.3469C65.8524 23.8323 65.873 24.7779 66.0482 25.7129C67.048 31.0465 70.336 34.5314 75.4998 35.7214C77.0047 36.072 79.9628 36.072 81.5398 35.7214C83.5703 35.2645 85.0958 34.5633 86.7243 33.299C87.8168 32.449 88.0848 32.1727 88.93 31.0253C90.0329 29.5166 90.8368 27.6147 91.1976 25.6173C91.414 24.4379 91.414 21.4311 91.2079 20.1561C90.7544 17.4893 89.5897 15.2369 87.7344 13.4307C86.1574 11.8901 84.467 10.987 82.1479 10.4451C80.6225 10.0839 78.2518 10.0626 77.015 10.4026C75.9946 10.6789 75.1288 11.0401 74.3867 11.4863C73.6961 11.9113 72.1912 13.3563 71.8614 13.8982L71.6244 14.2913L71.5728 7.17269L71.5213 0.0540962L68.6559 0.0222206L65.7905 0.000972748L65.8214 12.3469ZM80.9523 16.0231C83.0653 16.7456 84.7144 18.5412 85.3122 20.7724C85.5699 21.7499 85.6523 23.4711 85.4874 24.5229C85.137 26.7966 83.8177 28.7091 81.9315 29.6441C80.7049 30.2497 79.9731 30.4197 78.5817 30.4197C75.0257 30.409 72.5211 28.3691 71.7687 24.8523C71.3976 23.0992 71.6347 21.0486 72.4077 19.3593C72.8612 18.3818 74.2321 16.9581 75.2009 16.48C76.4172 15.8637 77.0974 15.7256 78.7878 15.7575C79.9834 15.7894 80.4163 15.8425 80.9523 16.0231Z" fill="#006261"/>
<path d="M95.1042 12.3991C95.1454 26.0838 95.1145 25.4038 95.8051 27.6244C96.9904 31.4174 99.8867 34.2967 103.628 35.4123C105.246 35.9011 106.494 36.0498 108.205 35.9861C111.42 35.8692 113.678 35.083 116.028 33.2767C117.069 32.4693 117.368 32.1611 118.141 31.1093C119.182 29.6856 119.893 28.145 120.336 26.3494C120.614 25.2019 120.728 21.9083 120.532 20.5058C120.14 17.7221 118.934 15.3103 117.007 13.4297C116.048 12.4947 115.564 12.1547 114.286 11.4854C112.4 10.5185 110.864 10.1573 108.627 10.1785C107.421 10.1785 106.906 10.2316 106.287 10.4016C105.277 10.6673 104.401 11.0391 103.659 11.4854C103.082 11.8466 101.34 13.5147 101.021 14.0247C100.866 14.2691 100.856 13.7591 100.856 7.13984L100.845 0H97.9593H95.063L95.1042 12.3991ZM110.225 16.0221C112.338 16.7446 113.987 18.5402 114.585 20.7714C114.842 21.7489 114.925 23.4701 114.76 24.5219C114.399 26.8275 113.1 28.6975 111.204 29.6431C109.998 30.2381 109.246 30.4187 107.854 30.4187C105.782 30.4187 104.174 29.7812 102.845 28.4212C101.928 27.4863 101.453 26.5513 101.093 25.0107C100.866 24.0226 100.825 23.6932 100.876 22.7901C100.938 21.5576 101.216 20.3889 101.68 19.3689C102.144 18.3808 103.505 16.9571 104.473 16.479C105.69 15.8628 106.37 15.7246 108.06 15.7565C109.256 15.7884 109.689 15.8415 110.225 16.0221Z" fill="#006261"/>
<path d="M14.8837 2.24212C12.1936 2.62461 11.0289 2.92211 9.44156 3.63396C5.79284 5.2808 2.79346 8.39386 1.28862 12.1125C0.319754 14.5137 -0.0100739 16.3093 0.000233223 19.2311C0.0105403 21.0373 0.0414617 21.4729 0.278526 22.6417C0.948488 25.9566 2.25749 28.5809 4.34984 30.8333C6.38034 33.0114 8.65821 34.4139 11.5339 35.2639C13.4923 35.8376 14.3993 35.9651 16.8421 35.9545C18.8313 35.9545 19.1921 35.9226 20.4289 35.657C23.8818 34.9345 26.6648 33.4364 28.9529 31.0777C31.0968 28.8678 32.3749 26.4984 33.1376 23.3641C33.4159 22.1848 33.4571 21.8236 33.5087 19.9111L33.5705 17.7755L32.3955 17.7118C30.8701 17.6161 21.6349 17.6161 17.8522 17.7118L14.9146 17.7755L14.8425 19.9323C14.8013 21.1117 14.8013 22.376 14.8425 22.7267L14.9146 23.3748H20.9134H26.9121L26.5101 24.246C25.9123 25.521 25.2939 26.4347 24.4796 27.2209C23.2737 28.4003 22.3358 28.9634 20.6454 29.5159C19.2849 29.9621 18.1408 30.1002 16.2855 30.0365C15.0074 29.994 14.5539 29.9302 13.7499 29.6965C9.36941 28.4109 6.7617 25.0747 6.33911 20.2086C6.22573 18.9974 6.3185 17.4568 6.54526 16.3624C7.00908 14.1631 8.25624 11.9213 9.73016 10.6463C12.9357 7.86262 17.9655 7.27826 21.7895 9.24384C22.2121 9.46696 22.8408 9.86007 23.1913 10.1363C23.9746 10.7419 25.0981 11.9638 25.5104 12.6544L25.8299 13.175H29.2622H32.6944L32.2306 12.0806C31.7152 10.8482 31.4782 10.4126 30.6227 9.09509C29.8909 7.97949 28.2417 6.24766 27.077 5.38705C25.1908 4.00583 22.6347 2.89023 20.5629 2.53962C18.1202 2.13588 16.3267 2.04025 14.8837 2.24212Z" fill="#006261"/>
<path d="M134.704 10.2007C130.468 10.5725 126.706 13.1118 124.84 16.8624C123.748 19.0405 123.469 20.3473 123.469 23.1629C123.48 25.0647 123.5 25.3197 123.758 26.3397C124.448 29.0384 125.438 30.8021 127.231 32.5339C128.839 34.0851 130.736 35.1157 133.045 35.6788C134.075 35.9338 134.384 35.9551 136.147 35.9551C137.776 35.9551 138.291 35.9126 139.167 35.7213C142.455 34.9882 145.063 33.2564 146.815 30.6427C147.289 29.9308 147.949 28.624 147.949 28.3903C147.949 28.284 143.506 28.2628 142.476 28.3584C141.837 28.4221 141.754 28.454 141.259 28.9321C140.053 30.0902 138.219 30.6639 135.951 30.579C134.096 30.5046 133.106 30.1646 131.725 29.1234C130.839 28.4434 129.86 26.8603 129.55 25.5959L129.489 25.3197L130.499 25.2559C131.055 25.2134 135.446 25.1816 140.26 25.1816H149L148.948 22.9716C148.897 20.6129 148.711 19.5398 148.114 17.9674C146.619 14.0893 143.321 11.2844 139.239 10.4344C138.054 10.1794 136.054 10.0838 134.704 10.2007ZM138.311 15.7787C140.342 16.3099 141.95 17.7974 142.682 19.8161L142.898 20.4004H136.25C132.591 20.4004 129.602 20.3686 129.602 20.3261C129.602 20.2836 129.818 19.7948 130.076 19.2317C131.035 17.1918 132.756 15.9487 135.065 15.6087C135.848 15.4918 137.569 15.5874 138.311 15.7787Z" fill="#006261"/>
<path d="M37.353 17.7221C37.353 25.1913 37.4046 26.1582 37.9199 28.0069C38.4868 30.015 39.1259 31.2156 40.3112 32.5118C41.9088 34.2649 43.6713 35.2105 46.3821 35.7736C47.6189 36.0286 50.6183 36.0286 51.9376 35.7736C56.1635 34.9767 59.2557 32.2143 60.3379 28.2513C60.8739 26.3069 60.8739 26.2432 60.9254 18.2959L60.977 10.8373L58.1116 10.8585L55.2359 10.8904L55.174 18.009C55.1328 24.1926 55.1019 25.2338 54.9473 25.9138C54.4732 28.0388 53.2466 29.4625 51.3192 30.1319C50.5874 30.3868 50.3503 30.4187 49.1547 30.4187C48.0003 30.4187 47.7014 30.3868 47.0211 30.1531C45.104 29.4944 43.9805 28.2088 43.4136 25.9988C43.1972 25.1595 43.1869 24.8832 43.1353 18.009L43.0735 10.8904L40.2184 10.8585L37.353 10.8373V17.7221Z" fill="#006261"/>
</svg>

