<svg width="803" height="183" viewBox="0 0 803 183" fill="none" xmlns="http://www.w3.org/2000/svg">
<path d="M255.579 61.1903H271.057V67.3815C274.038 64.263 276.584 62.1533 278.693 61.0527C280.94 59.9061 283.761 59.3329 287.155 59.3329C294.722 59.3329 300.707 62.6349 305.109 69.2389C309.971 62.6349 316.552 59.3329 324.853 59.3329C339.941 59.3329 347.485 68.4822 347.485 86.7809V128.194H331.938V90.9772C331.938 84.5566 331.159 80.0163 329.599 77.3564C327.994 74.6506 325.357 73.2977 321.688 73.2977C317.423 73.2977 314.305 74.9028 312.333 78.1131C310.406 81.3234 309.443 86.4828 309.443 93.5913V128.194H293.896V91.1836C293.896 79.2596 290.457 73.2977 283.577 73.2977C279.221 73.2977 276.033 74.9257 274.015 78.1819C272.043 81.4381 271.057 86.5745 271.057 93.5913V128.194H255.579V61.1903Z" fill="black"/>
<path d="M363.858 94.2105C363.858 84.5337 367.32 76.3016 374.245 69.5141C381.171 62.7266 389.609 59.3329 399.561 59.3329C409.559 59.3329 418.043 62.7495 425.014 69.5829C431.893 76.4162 435.333 84.8089 435.333 94.7608C435.333 104.804 431.87 113.22 424.945 120.007C417.974 126.749 409.421 130.12 399.286 130.12C389.242 130.12 380.827 126.68 374.039 119.801C367.252 113.014 363.858 104.483 363.858 94.2105ZM379.68 94.4856C379.68 101.181 381.469 106.478 385.046 110.377C388.715 114.321 393.553 116.293 399.561 116.293C405.615 116.293 410.453 114.344 414.076 110.445C417.699 106.547 419.511 101.342 419.511 94.8296C419.511 88.3173 417.699 83.112 414.076 79.2138C410.407 75.2697 405.569 73.2977 399.561 73.2977C393.645 73.2977 388.852 75.2697 385.183 79.2138C381.514 83.1579 379.68 88.2485 379.68 94.4856Z" fill="black"/>
<path d="M467.252 12.0039V68.9638C473.444 62.5432 480.46 59.3329 488.303 59.3329C497.337 59.3329 504.859 62.7037 510.867 69.4453C516.874 76.1411 519.878 84.4878 519.878 94.4856C519.878 104.804 516.851 113.335 510.798 120.076C504.79 126.772 497.2 130.12 488.028 130.12C480.277 130.12 473.352 127.139 467.252 121.177V128.194H451.774V12.0039H467.252ZM504.056 95.1735C504.056 88.753 502.313 83.5247 498.828 79.4889C495.297 75.3614 490.871 73.2977 485.551 73.2977C479.864 73.2977 475.232 75.2926 471.655 79.2826C468.124 83.2266 466.358 88.3631 466.358 94.692C466.358 101.204 468.101 106.41 471.586 110.308C475.072 114.298 479.658 116.293 485.345 116.293C490.71 116.293 495.159 114.298 498.69 110.308C502.267 106.272 504.056 101.227 504.056 95.1735Z" fill="black"/>
<path d="M585.644 61.1903H601.191V128.194H585.644V121.177C579.269 127.139 572.412 130.12 565.075 130.12C555.811 130.12 548.152 126.772 542.098 120.076C536.09 113.243 533.086 104.713 533.086 94.4856C533.086 84.442 536.09 76.0723 542.098 69.3765C548.106 62.6807 555.627 59.3329 564.662 59.3329C572.458 59.3329 579.452 62.5432 585.644 68.9638V61.1903ZM548.909 94.4856C548.909 100.906 550.628 106.134 554.068 110.17C557.599 114.252 562.048 116.293 567.414 116.293C573.146 116.293 577.778 114.321 581.31 110.377C584.841 106.295 586.607 101.113 586.607 94.8296C586.607 88.5466 584.841 83.3642 581.31 79.2826C577.778 75.2926 573.192 73.2977 567.551 73.2977C562.231 73.2977 557.783 75.3156 554.206 79.3514C550.674 83.433 548.909 88.4778 548.909 94.4856Z" fill="black"/>
<path d="M636.206 12.0039V128.194H620.727V12.0039H636.206Z" fill="black"/>
<path d="M658.219 120.489C658.219 117.921 659.159 115.697 661.04 113.816C662.92 111.936 665.167 110.996 667.781 110.996C670.395 110.996 672.643 111.936 674.523 113.816C676.403 115.697 677.343 117.944 677.343 120.558C677.343 123.218 676.403 125.488 674.523 127.368C672.688 129.203 670.441 130.12 667.781 130.12C665.075 130.12 662.805 129.203 660.971 127.368C659.136 125.534 658.219 123.241 658.219 120.489Z" fill="black"/>
<path d="M714.766 61.1903V128.194H699.288V61.1903H714.766ZM696.949 33.3295C696.949 30.6236 697.935 28.2847 699.907 26.3127C701.879 24.3406 704.241 23.3546 706.993 23.3546C709.79 23.3546 712.175 24.3406 714.147 26.3127C716.119 28.2388 717.105 30.6007 717.105 33.3982C717.105 36.1958 716.119 38.5806 714.147 40.5526C712.221 42.5247 709.859 43.5107 707.062 43.5107C704.264 43.5107 701.879 42.5247 699.907 40.5526C697.935 38.5806 696.949 36.1729 696.949 33.3295Z" fill="black"/>
<path d="M731.208 94.2105C731.208 84.5337 734.67 76.3016 741.595 69.5141C748.52 62.7266 756.959 59.3329 766.911 59.3329C776.908 59.3329 785.393 62.7495 792.364 69.5829C799.243 76.4162 802.682 84.8089 802.682 94.7608C802.682 104.804 799.22 113.22 792.295 120.007C785.324 126.749 776.771 130.12 766.635 130.12C756.592 130.12 748.176 126.68 741.389 119.801C734.601 113.014 731.208 104.483 731.208 94.2105ZM747.03 94.4856C747.03 101.181 748.818 106.478 752.395 110.377C756.064 114.321 760.903 116.293 766.911 116.293C772.964 116.293 777.803 114.344 781.426 110.445C785.049 106.547 786.86 101.342 786.86 94.8296C786.86 88.3173 785.049 83.112 781.426 79.2138C777.757 75.2697 772.918 73.2977 766.911 73.2977C760.994 73.2977 756.202 75.2697 752.533 79.2138C748.864 83.1579 747.03 88.2485 747.03 94.4856Z" fill="black"/>
<rect width="183" height="183" rx="42" fill="black"/>
<rect x="107.095" y="107.405" width="32" height="32" rx="16" transform="rotate(180 107.095 107.405)" fill="white"/>
<rect x="135.164" y="47.4051" width="32" height="82" rx="16" transform="rotate(22 135.164 47.4051)" fill="white"/>
<rect x="48.4609" y="47.4051" width="32" height="82" rx="16" transform="rotate(22 48.4609 47.4051)" fill="white"/>
</svg>
