<svg xmlns="http://www.w3.org/2000/svg" viewBox="0 0 262.98532 64.329331" height="64.329" width="262.985"><defs><clipPath id="a"><path d="M122.183 145.124h7.114V97.641h-7.114v47.483z"/></clipPath><linearGradient id="b" gradientTransform="matrix(0 -47.4834 -47.4834 0 125.74 145.124)" gradientUnits="userSpaceOnUse" x2="1"><stop offset="0" stop-color="#e55a43"/><stop offset=".696" stop-color="#e55a43"/><stop offset="1" stop-color="#a83840"/></linearGradient><clipPath id="c"><path d="M110.714 126.646h7.115V97.64h-7.115v29.006z"/></clipPath><linearGradient id="d" gradientTransform="rotate(-90 120.461 6.178) scale(29.00586)" gradientUnits="userSpaceOnUse" x2="1"><stop offset="0" stop-color="#60c1e5"/><stop offset=".696" stop-color="#60c1e5"/><stop offset="1" stop-color="#4b64a4"/></linearGradient><clipPath id="e"><path d="M133.651 137.173h7.114V97.64h-7.114v39.533z"/></clipPath><linearGradient id="f" gradientTransform="rotate(-90 137.18 0) scale(39.5332)" gradientUnits="userSpaceOnUse" x2="1"><stop offset="0" stop-color="#f8b009"/><stop offset=".696" stop-color="#f8b009"/><stop offset="1" stop-color="#c36729"/></linearGradient><clipPath id="g"><path d="M158.632 103.912h15.212V97.64h-25.081v5.943l14.885 16.958h-13.85v6.107h23.501v-6.27l-14.667-16.466z"/></clipPath><linearGradient id="h" gradientTransform="matrix(0 -29.00781 -29.00781 0 161.303 126.648)" gradientUnits="userSpaceOnUse" x2="1"><stop offset="0" stop-color="#585e82"/><stop offset=".159" stop-color="#585e82"/><stop offset="1" stop-color="#2c2c23"/></linearGradient><linearGradient id="i" gradientTransform="matrix(0 -30.53516 -30.53516 0 191.2 127.412)" gradientUnits="userSpaceOnUse" x2="1"><stop offset="0" stop-color="#585e82"/><stop offset=".159" stop-color="#585e82"/><stop offset="1" stop-color="#2c2c23"/></linearGradient><linearGradient id="j" gradientTransform="matrix(0 -39.53125 -39.53125 0 213.232 137.171)" gradientUnits="userSpaceOnUse" x2="1"><stop offset="0" stop-color="#585e82"/><stop offset=".497" stop-color="#585e82"/><stop offset="1" stop-color="#2c2c23"/></linearGradient><linearGradient id="k" gradientTransform="matrix(0 -29.77148 -29.77148 0 234.123 127.412)" gradientUnits="userSpaceOnUse" x2="1"><stop offset="0" stop-color="#585e82"/><stop offset=".159" stop-color="#585e82"/><stop offset="1" stop-color="#2c2c23"/></linearGradient><linearGradient id="l" gradientTransform="matrix(0 -30.53516 -30.53516 0 263.348 127.412)" gradientUnits="userSpaceOnUse" x2="1"><stop offset="0" stop-color="#585e82"/><stop offset=".159" stop-color="#585e82"/><stop offset="1" stop-color="#2c2c23"/></linearGradient><linearGradient id="m" gradientTransform="matrix(0 -39.91406 -39.91406 0 293.679 136.79)" gradientUnits="userSpaceOnUse" x2="1"><stop offset="0" stop-color="#585e82"/><stop offset=".159" stop-color="#585e82"/><stop offset="1" stop-color="#2c2c23"/></linearGradient></defs><g clip-path="url(#a)" transform="matrix(1.33333 0 0 -1.33333 -147.619 193.499)"><path d="M122.183 145.124h7.114V97.641h-7.114v47.483z" fill="url(#b)"/></g><g clip-path="url(#c)" transform="matrix(1.33333 0 0 -1.33333 -147.619 193.499)"><path d="M110.714 126.646h7.115V97.64h-7.115v29.006z" fill="url(#d)"/></g><g clip-path="url(#e)" transform="matrix(1.33333 0 0 -1.33333 -147.619 193.499)"><path d="M133.651 137.173h7.114V97.64h-7.114v39.533z" fill="url(#f)"/></g><g clip-path="url(#g)" transform="matrix(1.33333 0 0 -1.33333 -147.619 193.499)"><path d="M158.632 103.912h15.212V97.64h-25.081v5.943l14.885 16.958h-13.85v6.107h23.501v-6.27l-14.667-16.466z" fill="url(#h)"/></g><path d="M176.37 112.144c0-10.468 7.035-15.267 14.831-15.267 7.797 0 14.831 4.799 14.831 15.267s-7.034 15.267-14.831 15.267c-7.796 0-14.831-4.799-14.831-15.267m7.852 0c0 3.707 1.091 8.834 6.979 8.834 5.889 0 6.979-5.127 6.979-8.834s-1.09-8.832-6.979-8.832c-5.888 0-6.979 5.125-6.979 8.832" fill="url(#i)" transform="matrix(1.33333 0 0 -1.33333 -147.619 193.499)"/><path d="M209.415 130.083h7.634v7.088h-7.634v-7.088zm0-32.443h7.634v29.008h-7.634V97.64z" fill="url(#j)" transform="matrix(1.33333 0 0 -1.33333 -147.619 193.499)"/><path d="M228.425 122.396h-.109v4.252h-7.307V97.64h7.634v16.631c0 4.416 2.617 6.707 5.998 6.707 4.853 0 4.962-3.6 4.962-5.727V97.64h7.633v20.066c0 6.38-4.416 9.705-10.087 9.705-5.507 0-7.688-3.271-8.724-5.015" fill="url(#k)" transform="matrix(1.33333 0 0 -1.33333 -147.619 193.499)"/><path d="M249.58 112.744c0-11.942 6.27-15.867 14.449-15.867 4.961 0 10.742 2.29 12.759 9.269h-7.852c-.599-2.07-2.781-3.162-4.907-3.162-6.161 0-6.598 4.908-6.816 7.088h19.902v1.363c0 13.25-7.906 15.976-13.631 15.976-12.704 0-13.904-11.177-13.904-14.667m13.795 8.396c2.453 0 5.452-1.416 5.889-6.106h-11.833c.437 3.817 2.345 6.106 5.944 6.106" fill="url(#l)" transform="matrix(1.33333 0 0 -1.33333 -147.619 193.499)"/><path d="M299.96 136.79v-13.904h-.109c-1.2 1.854-3.49 4.525-8.397 4.525-6.38 0-12.05-4.907-12.05-14.939 0-7.96 3.599-15.595 12.214-15.595 3.163 0 6.542 1.146 8.397 4.417h.109V97.64h7.829v39.15h-7.993zm-12.704-24.862c0 4.577 1.636 8.886 6.488 8.886 5.234 0 6.543-4.69 6.543-9.325 0-4.306-1.908-8.341-6.761-8.341-4.907 0-6.27 5.343-6.27 8.78" fill="url(#m)" transform="matrix(1.33333 0 0 -1.33333 -147.619 193.499)"/></svg>
