<svg width="190" height="44" viewBox="0 0 190 44" fill="none" xmlns="http://www.w3.org/2000/svg">
<path d="M29.2352 34.2812C29.2352 35.0104 29.0529 35.5964 28.6883 36.0391C28.3237 36.5078 27.7638 36.7422 27.0086 36.7422C26.4096 36.7422 25.8497 36.5599 25.3289 36.1953C24.8341 35.8307 24.3654 35.388 23.9227 34.8672C23.506 34.3203 23.1284 33.7474 22.7898 33.1484C22.4773 32.5495 22.2169 32.0286 22.0086 31.5859C21.4617 30.4922 20.9148 29.3984 20.368 28.3047C19.8471 27.2109 19.3263 26.1042 18.8055 24.9844L16.4617 26.4297C16.4878 27.1849 16.4487 27.9401 16.3445 28.6953C16.2404 29.4505 16.1622 30.2057 16.1102 30.9609C16.0581 31.4818 15.9669 32.0547 15.8367 32.6797C15.7325 33.2786 15.5503 33.8516 15.2898 34.3984C15.0294 34.9193 14.6779 35.362 14.2352 35.7266C13.7924 36.0911 13.2456 36.2734 12.5945 36.2734C11.9956 36.2734 11.5008 36.1562 11.1102 35.9219C10.7195 35.6615 10.394 35.3359 10.1336 34.9453C9.89922 34.5547 9.72994 34.112 9.62578 33.6172C9.52161 33.1224 9.46953 32.6146 9.46953 32.0938V31.7812C9.46953 30.2448 9.54765 28.7083 9.7039 27.1719C9.88619 25.6094 10.0034 24.0469 10.0555 22.4844C10.1075 20.4271 10.1727 18.3698 10.2508 16.3125C10.3289 14.2552 10.4331 12.1979 10.5633 10.1406C10.5893 9.67188 10.6674 9.21615 10.7977 8.77344C10.9279 8.33073 11.1232 7.9401 11.3836 7.60156C11.644 7.23698 11.9565 6.95052 12.3211 6.74219C12.7117 6.53385 13.1674 6.42969 13.6883 6.42969C14.4956 6.42969 15.0945 6.71615 15.4852 7.28906C15.9018 7.86198 16.1883 8.55208 16.3445 9.35938C16.5008 10.1667 16.5659 11 16.5398 11.8594C16.5398 12.7188 16.5398 13.4349 16.5398 14.0078C16.5398 15.6484 16.5008 17.2891 16.4227 18.9297C17.1779 18.3047 17.907 17.5885 18.6102 16.7812C19.3393 15.974 19.9773 15.1536 20.5242 14.3203C20.8628 13.8255 21.2534 13.1484 21.6961 12.2891C22.1388 11.4036 22.6206 10.5573 23.1414 9.75C23.6622 8.91667 24.2352 8.20052 24.8602 7.60156C25.4852 6.97656 26.1492 6.66406 26.8523 6.66406C27.6075 6.66406 28.1544 6.88542 28.493 7.32812C28.8575 7.74479 29.0398 8.30469 29.0398 9.00781C29.0398 10.0495 28.8706 11.1172 28.532 12.2109C28.2195 13.3047 27.7898 14.3854 27.243 15.4531C26.6961 16.4948 26.0711 17.4974 25.368 18.4609C24.6909 19.3984 24.0008 20.2188 23.2977 20.9219C24.0268 22.1458 24.7169 23.3828 25.368 24.6328C26.019 25.8568 26.67 27.0938 27.3211 28.3438C27.5555 28.7604 27.7768 29.2161 27.9852 29.7109C28.2195 30.2057 28.4279 30.7135 28.6102 31.2344C28.7924 31.7552 28.9357 32.276 29.0398 32.7969C29.17 33.3177 29.2352 33.8125 29.2352 34.2812ZM38.3961 37.2891C36.8075 37.2891 35.4273 36.8854 34.2555 36.0781C33.0836 35.2969 32.107 34.2422 31.3258 32.9141C30.5706 31.5599 29.9977 29.9974 29.607 28.2266C29.2424 26.4557 29.0602 24.5938 29.0602 22.6406C29.0602 20.8177 29.2555 18.9688 29.6461 17.0938C30.0628 15.2188 30.6878 13.526 31.5211 12.0156C32.3544 10.5052 33.4091 9.26823 34.6852 8.30469C35.9612 7.34115 37.4846 6.85938 39.2555 6.85938C40.9742 6.85938 42.4065 7.32812 43.5523 8.26562C44.7242 9.17708 45.6487 10.375 46.3258 11.8594C47.0289 13.3177 47.5237 14.9583 47.8102 16.7812C48.1227 18.6042 48.2789 20.4271 48.2789 22.25C48.2789 24.2812 48.0706 26.2083 47.6539 28.0312C47.2633 29.8281 46.6513 31.4167 45.818 32.7969C45.0107 34.1771 43.982 35.2708 42.732 36.0781C41.5081 36.8854 40.0628 37.2891 38.3961 37.2891ZM38.8648 15.4922C38.37 15.4922 37.9404 15.6875 37.5758 16.0781C37.2372 16.4688 36.9508 16.9896 36.7164 17.6406C36.482 18.2656 36.3128 18.9818 36.2086 19.7891C36.1044 20.5703 36.0523 21.3646 36.0523 22.1719C36.0523 23.0833 36.1044 23.9948 36.2086 24.9062C36.3388 25.8177 36.5211 26.638 36.7555 27.3672C36.9898 28.0964 37.2763 28.6823 37.6148 29.125C37.9794 29.5677 38.4091 29.7891 38.9039 29.7891C39.4768 29.7891 39.9325 29.5026 40.2711 28.9297C40.6096 28.3568 40.87 27.6667 41.0523 26.8594C41.2607 26.0521 41.3909 25.2188 41.443 24.3594C41.5211 23.5 41.5602 22.7839 41.5602 22.2109C41.5602 21.5078 41.5081 20.7656 41.4039 19.9844C41.3258 19.2031 41.1825 18.487 40.9742 17.8359C40.7659 17.1589 40.4924 16.599 40.1539 16.1562C39.8154 15.7135 39.3857 15.4922 38.8648 15.4922ZM58.6117 37.2891C57.0232 37.2891 55.643 36.8854 54.4711 36.0781C53.2992 35.2969 52.3227 34.2422 51.5414 32.9141C50.7862 31.5599 50.2133 29.9974 49.8227 28.2266C49.4581 26.4557 49.2758 24.5938 49.2758 22.6406C49.2758 20.8177 49.4711 18.9688 49.8617 17.0938C50.2784 15.2188 50.9034 13.526 51.7367 12.0156C52.5701 10.5052 53.6247 9.26823 54.9008 8.30469C56.1768 7.34115 57.7003 6.85938 59.4711 6.85938C61.1898 6.85938 62.6221 7.32812 63.768 8.26562C64.9398 9.17708 65.8643 10.375 66.5414 11.8594C67.2445 13.3177 67.7393 14.9583 68.0258 16.7812C68.3383 18.6042 68.4945 20.4271 68.4945 22.25C68.4945 24.2812 68.2862 26.2083 67.8695 28.0312C67.4789 29.8281 66.8669 31.4167 66.0336 32.7969C65.2263 34.1771 64.1977 35.2708 62.9477 36.0781C61.7237 36.8854 60.2784 37.2891 58.6117 37.2891ZM59.0805 15.4922C58.5857 15.4922 58.156 15.6875 57.7914 16.0781C57.4529 16.4688 57.1664 16.9896 56.932 17.6406C56.6977 18.2656 56.5284 18.9818 56.4242 19.7891C56.3201 20.5703 56.268 21.3646 56.268 22.1719C56.268 23.0833 56.3201 23.9948 56.4242 24.9062C56.5544 25.8177 56.7367 26.638 56.9711 27.3672C57.2055 28.0964 57.4919 28.6823 57.8305 29.125C58.1951 29.5677 58.6247 29.7891 59.1195 29.7891C59.6924 29.7891 60.1482 29.5026 60.4867 28.9297C60.8253 28.3568 61.0857 27.6667 61.268 26.8594C61.4763 26.0521 61.6065 25.2188 61.6586 24.3594C61.7367 23.5 61.7758 22.7839 61.7758 22.2109C61.7758 21.5078 61.7237 20.7656 61.6195 19.9844C61.5414 19.2031 61.3982 18.487 61.1898 17.8359C60.9815 17.1589 60.7081 16.599 60.3695 16.1562C60.031 15.7135 59.6013 15.4922 59.0805 15.4922ZM89.9992 18.4219C89.9992 20.7135 89.5305 22.9271 88.593 25.0625C87.6555 27.1719 86.3924 29.0469 84.8039 30.6875C83.2414 32.3281 81.4055 33.6432 79.2961 34.6328C77.2128 35.5964 75.0122 36.0781 72.6945 36.0781H72.6164C72.1477 36.0781 71.757 35.8698 71.4445 35.4531C71.1581 35.0104 70.9107 34.4635 70.7023 33.8125C70.494 33.1615 70.3378 32.4323 70.2336 31.625C70.1294 30.8177 70.0513 30.0365 69.9992 29.2812C69.9471 28.5 69.9211 27.8099 69.9211 27.2109C69.9211 26.5859 69.9211 26.1172 69.9211 25.8047C69.9211 24.9193 69.9341 24.0469 69.9602 23.1875C69.9862 22.3021 70.0253 21.4167 70.0773 20.5312C70.0773 20.2448 70.0904 19.8281 70.1164 19.2812C70.1685 18.7083 70.2206 18.0703 70.2727 17.3672C70.3247 16.6641 70.3898 15.9349 70.468 15.1797C70.5461 14.3984 70.6242 13.6823 70.7023 13.0312C70.8065 12.3542 70.8977 11.7682 70.9758 11.2734C71.0799 10.7526 71.1971 10.401 71.3273 10.2188C71.6659 9.64583 72.1867 9.13802 72.8898 8.69531C73.593 8.2526 74.3482 7.88802 75.1555 7.60156C75.9888 7.3151 76.8221 7.10677 77.6555 6.97656C78.5148 6.82031 79.257 6.74219 79.882 6.74219C81.6008 6.74219 83.0852 7.06771 84.3352 7.71875C85.6112 8.34375 86.6659 9.20312 87.4992 10.2969C88.3586 11.3646 88.9836 12.6016 89.3742 14.0078C89.7909 15.4141 89.9992 16.8854 89.9992 18.4219ZM83.4367 19.5547C83.4367 18.9818 83.3325 18.3958 83.1242 17.7969C82.9159 17.1979 82.6164 16.651 82.2258 16.1562C81.8612 15.6615 81.4055 15.2708 80.8586 14.9844C80.3378 14.6719 79.7518 14.5156 79.1008 14.5156C78.5539 14.5156 77.994 14.6458 77.4211 14.9062C77.2909 14.9844 77.1737 15.2318 77.0695 15.6484C76.9654 16.0391 76.8742 16.5208 76.7961 17.0938C76.744 17.6667 76.6919 18.2917 76.6398 18.9688C76.5878 19.6458 76.5487 20.2969 76.5227 20.9219C76.5227 21.5208 76.5096 22.0547 76.4836 22.5234C76.4836 22.9922 76.4836 23.3047 76.4836 23.4609C76.4836 23.7214 76.4836 24.112 76.4836 24.6328C76.4836 25.1276 76.4966 25.6224 76.5227 26.1172C76.5747 26.612 76.6268 27.0417 76.6789 27.4062C76.731 27.7708 76.8221 27.9531 76.9523 27.9531C77.7336 27.9531 78.5018 27.6536 79.257 27.0547C80.0383 26.4297 80.7414 25.6745 81.3664 24.7891C81.9914 23.9036 82.4862 22.9792 82.8508 22.0156C83.2414 21.0521 83.4367 20.2318 83.4367 19.5547ZM104.082 9.47656C104.082 9.97135 103.965 10.4141 103.73 10.8047C103.522 11.1953 103.236 11.5339 102.871 11.8203C102.507 12.0807 102.103 12.3021 101.66 12.4844C101.217 12.6667 100.788 12.7969 100.371 12.875C100.319 15.8177 100.202 18.6562 100.02 21.3906C99.8633 24.125 99.6029 26.9505 99.2383 29.8672H99.4727C99.8893 29.8672 100.293 29.9193 100.684 30.0234C101.1 30.1016 101.465 30.2578 101.777 30.4922C102.116 30.7005 102.376 30.974 102.559 31.3125C102.767 31.625 102.871 32.0156 102.871 32.4844C102.871 33.0833 102.676 33.6042 102.285 34.0469C101.921 34.4896 101.426 34.8672 100.801 35.1797C100.202 35.4922 99.5247 35.7526 98.7695 35.9609C98.0143 36.1693 97.2591 36.3255 96.5039 36.4297C95.7487 36.5599 95.0326 36.651 94.3555 36.7031C93.6784 36.7552 93.1315 36.7812 92.7148 36.7812C92.4023 36.7812 92.0117 36.7682 91.543 36.7422C91.1003 36.7161 90.6706 36.638 90.2539 36.5078C89.8633 36.3776 89.5247 36.1823 89.2383 35.9219C88.9518 35.6615 88.8086 35.3099 88.8086 34.8672C88.8086 34.3203 88.9258 33.8385 89.1602 33.4219C89.3685 32.9792 89.6549 32.5885 90.0195 32.25C90.3841 31.9115 90.7878 31.638 91.2305 31.4297C91.6992 31.2214 92.168 31.0651 92.6367 30.9609C92.819 29.5286 92.9883 28.1094 93.1445 26.7031C93.3008 25.2708 93.4049 23.8255 93.457 22.3672C93.5091 20.8828 93.5612 19.4245 93.6133 17.9922C93.6654 16.5339 93.7174 15.0755 93.7695 13.6172C93.5872 13.6432 93.418 13.6693 93.2617 13.6953C93.1055 13.6953 92.9622 13.6953 92.832 13.6953C92.4674 13.6953 92.0768 13.6562 91.6602 13.5781C91.2435 13.5 90.8529 13.3698 90.4883 13.1875C90.1237 12.9792 89.8112 12.7318 89.5508 12.4453C89.3164 12.1589 89.1992 11.7943 89.1992 11.3516C89.1992 10.4661 89.5638 9.73698 90.293 9.16406C91.0482 8.59115 91.9336 8.14844 92.9492 7.83594C93.9909 7.52344 95.0456 7.3151 96.1133 7.21094C97.181 7.08073 98.0404 7.01562 98.6914 7.01562C99.056 7.01562 99.5378 7.04167 100.137 7.09375C100.736 7.14583 101.322 7.26302 101.895 7.44531C102.493 7.6276 103.001 7.875 103.418 8.1875C103.861 8.5 104.082 8.92969 104.082 9.47656ZM123.438 34.2812C123.438 35.0104 123.256 35.5964 122.891 36.0391C122.527 36.5078 121.967 36.7422 121.212 36.7422C120.613 36.7422 120.053 36.5599 119.532 36.1953C119.037 35.8307 118.568 35.388 118.126 34.8672C117.709 34.3203 117.332 33.7474 116.993 33.1484C116.68 32.5495 116.42 32.0286 116.212 31.5859C115.665 30.4922 115.118 29.3984 114.571 28.3047C114.05 27.2109 113.529 26.1042 113.009 24.9844L110.665 26.4297C110.691 27.1849 110.652 27.9401 110.548 28.6953C110.443 29.4505 110.365 30.2057 110.313 30.9609C110.261 31.4818 110.17 32.0547 110.04 32.6797C109.936 33.2786 109.753 33.8516 109.493 34.3984C109.233 34.9193 108.881 35.362 108.438 35.7266C107.996 36.0911 107.449 36.2734 106.798 36.2734C106.199 36.2734 105.704 36.1562 105.313 35.9219C104.923 35.6615 104.597 35.3359 104.337 34.9453C104.102 34.5547 103.933 34.112 103.829 33.6172C103.725 33.1224 103.673 32.6146 103.673 32.0938V31.7812C103.673 30.2448 103.751 28.7083 103.907 27.1719C104.089 25.6094 104.207 24.0469 104.259 22.4844C104.311 20.4271 104.376 18.3698 104.454 16.3125C104.532 14.2552 104.636 12.1979 104.766 10.1406C104.792 9.67188 104.871 9.21615 105.001 8.77344C105.131 8.33073 105.326 7.9401 105.587 7.60156C105.847 7.23698 106.16 6.95052 106.524 6.74219C106.915 6.53385 107.371 6.42969 107.891 6.42969C108.699 6.42969 109.298 6.71615 109.688 7.28906C110.105 7.86198 110.391 8.55208 110.548 9.35938C110.704 10.1667 110.769 11 110.743 11.8594C110.743 12.7188 110.743 13.4349 110.743 14.0078C110.743 15.6484 110.704 17.2891 110.626 18.9297C111.381 18.3047 112.11 17.5885 112.813 16.7812C113.542 15.974 114.18 15.1536 114.727 14.3203C115.066 13.8255 115.457 13.1484 115.899 12.2891C116.342 11.4036 116.824 10.5573 117.345 9.75C117.865 8.91667 118.438 8.20052 119.063 7.60156C119.688 6.97656 120.352 6.66406 121.055 6.66406C121.811 6.66406 122.358 6.88542 122.696 7.32812C123.061 7.74479 123.243 8.30469 123.243 9.00781C123.243 10.0495 123.074 11.1172 122.735 12.2109C122.423 13.3047 121.993 14.3854 121.446 15.4531C120.899 16.4948 120.274 17.4974 119.571 18.4609C118.894 19.3984 118.204 20.2188 117.501 20.9219C118.23 22.1458 118.92 23.3828 119.571 24.6328C120.222 25.8568 120.873 27.0938 121.524 28.3438C121.759 28.7604 121.98 29.2161 122.188 29.7109C122.423 30.2057 122.631 30.7135 122.813 31.2344C122.996 31.7552 123.139 32.276 123.243 32.7969C123.373 33.3177 123.438 33.8125 123.438 34.2812ZM143.771 30.2188C143.771 30.7396 143.719 31.3646 143.615 32.0938C143.537 32.8229 143.367 33.526 143.107 34.2031C142.847 34.8542 142.495 35.4141 142.052 35.8828C141.61 36.3255 141.024 36.5469 140.295 36.5469C139.331 36.5469 138.602 36.1953 138.107 35.4922C137.638 34.7891 137.3 33.9557 137.091 32.9922C136.883 32.0026 136.753 31 136.701 29.9844C136.675 28.9688 136.649 28.1615 136.623 27.5625C134.748 27.875 132.899 28.1484 131.076 28.3828C131.024 28.9818 130.907 29.724 130.724 30.6094C130.568 31.4948 130.308 32.3542 129.943 33.1875C129.604 33.9948 129.149 34.6979 128.576 35.2969C128.029 35.8958 127.352 36.1953 126.545 36.1953C125.92 36.1953 125.425 35.974 125.06 35.5312C124.722 35.0625 124.461 34.5156 124.279 33.8906C124.097 33.2656 123.979 32.6276 123.927 31.9766C123.901 31.2995 123.888 30.7396 123.888 30.2969C123.888 28.8125 124.005 27.3542 124.24 25.9219C124.474 24.4635 124.748 23.0182 125.06 21.5859C125.216 20.8307 125.425 19.9453 125.685 18.9297C125.946 17.9141 126.258 16.8724 126.623 15.8047C127.013 14.7109 127.456 13.6432 127.951 12.6016C128.472 11.5339 129.058 10.5833 129.709 9.75C130.36 8.91667 131.102 8.23958 131.935 7.71875C132.768 7.19792 133.693 6.9375 134.709 6.9375C135.698 6.9375 136.558 7.15885 137.287 7.60156C138.016 8.04427 138.654 8.63021 139.201 9.35938C139.748 10.0885 140.203 10.9219 140.568 11.8594C140.933 12.7708 141.232 13.7083 141.466 14.6719C141.727 15.6094 141.935 16.5339 142.091 17.4453C142.274 18.3568 142.43 19.1641 142.56 19.8672C142.899 21.5599 143.185 23.2786 143.42 25.0234C143.654 26.7422 143.771 28.474 143.771 30.2188ZM136.232 20.7266C136.232 20.4141 136.206 19.9062 136.154 19.2031C136.128 18.474 136.05 17.7578 135.92 17.0547C135.789 16.3255 135.581 15.6875 135.295 15.1406C135.034 14.5677 134.67 14.2812 134.201 14.2812C133.94 14.2812 133.693 14.4635 133.459 14.8281C133.224 15.1667 133.016 15.6094 132.834 16.1562C132.651 16.6771 132.482 17.263 132.326 17.9141C132.196 18.5651 132.078 19.1901 131.974 19.7891C131.87 20.388 131.792 20.9349 131.74 21.4297C131.688 21.8984 131.649 22.237 131.623 22.4453C133.185 22.3151 134.722 22.1198 136.232 21.8594V20.7266ZM162.034 9.32031C162.034 9.97135 161.773 10.5703 161.252 11.1172C160.758 11.638 160.146 12.1068 159.416 12.5234C158.713 12.9141 157.984 13.2396 157.229 13.5C156.474 13.7604 155.849 13.9427 155.354 14.0469C155.146 16.0521 154.976 18.0573 154.846 20.0625C154.742 22.0417 154.69 24.0339 154.69 26.0391C154.69 27.1068 154.716 28.1615 154.768 29.2031C154.82 30.2448 154.846 31.2865 154.846 32.3281C154.846 32.7969 154.794 33.3177 154.69 33.8906C154.612 34.4375 154.455 34.9583 154.221 35.4531C154.013 35.9479 153.713 36.3646 153.323 36.7031C152.932 37.0417 152.45 37.2109 151.877 37.2109C151.2 37.2109 150.653 37.0156 150.237 36.625C149.846 36.2604 149.534 35.8047 149.299 35.2578C149.091 34.7109 148.948 34.138 148.87 33.5391C148.791 32.9141 148.752 32.3542 148.752 31.8594C148.7 30.2969 148.661 28.7344 148.635 27.1719C148.609 25.5833 148.596 23.9948 148.596 22.4062C148.596 21.0781 148.596 19.776 148.596 18.5C148.622 17.224 148.635 15.9219 148.635 14.5938C148.271 14.6458 147.893 14.6849 147.502 14.7109C147.138 14.737 146.76 14.75 146.37 14.75C146.057 14.75 145.64 14.724 145.12 14.6719C144.625 14.5938 144.143 14.4766 143.674 14.3203C143.205 14.138 142.802 13.9036 142.463 13.6172C142.125 13.3047 141.955 12.9141 141.955 12.4453C141.955 11.6641 142.268 10.987 142.893 10.4141C143.492 9.8151 144.26 9.30729 145.198 8.89062C146.161 8.44792 147.216 8.08333 148.362 7.79688C149.534 7.48438 150.679 7.25 151.799 7.09375C152.945 6.91146 153.987 6.78125 154.924 6.70312C155.888 6.625 156.63 6.58594 157.151 6.58594C157.646 6.58594 158.166 6.61198 158.713 6.66406C159.286 6.6901 159.82 6.79427 160.315 6.97656C160.81 7.15885 161.213 7.43229 161.526 7.79688C161.864 8.16146 162.034 8.66927 162.034 9.32031ZM180.14 22.2891C180.14 23.3568 180.088 24.4635 179.984 25.6094C179.879 26.7292 179.697 27.8229 179.437 28.8906C179.176 29.9583 178.812 30.974 178.343 31.9375C177.9 32.875 177.327 33.7083 176.624 34.4375C175.921 35.1406 175.075 35.7005 174.085 36.1172C173.096 36.5339 171.937 36.7422 170.609 36.7422C168.655 36.7422 166.95 36.2865 165.491 35.375C164.059 34.4635 162.861 33.3047 161.898 31.8984C160.934 30.4661 160.218 28.8776 159.749 27.1328C159.28 25.362 159.046 23.6172 159.046 21.8984C159.046 21.7161 159.046 21.5469 159.046 21.3906C159.046 21.2344 159.059 21.0911 159.085 20.9609C159.111 20.4141 159.15 19.6719 159.202 18.7344C159.28 17.7969 159.398 16.7943 159.554 15.7266C159.71 14.6589 159.905 13.5651 160.14 12.4453C160.4 11.3255 160.726 10.3229 161.116 9.4375C161.533 8.55208 162.028 7.82292 162.601 7.25C163.174 6.67708 163.851 6.39062 164.632 6.39062C165.205 6.39062 165.687 6.5599 166.077 6.89844C166.468 7.23698 166.78 7.66667 167.015 8.1875C167.275 8.68229 167.458 9.21615 167.562 9.78906C167.666 10.3359 167.718 10.8438 167.718 11.3125C167.718 12.0156 167.64 12.7318 167.484 13.4609C167.353 14.1641 167.223 14.8672 167.093 15.5703C166.885 16.6901 166.715 17.8099 166.585 18.9297C166.455 20.0495 166.39 21.1953 166.39 22.3672C166.39 22.9661 166.416 23.6953 166.468 24.5547C166.546 25.4141 166.715 26.2474 166.976 27.0547C167.236 27.8359 167.601 28.513 168.07 29.0859C168.564 29.6328 169.228 29.9062 170.062 29.9062C170.869 29.9062 171.507 29.6328 171.976 29.0859C172.471 28.5391 172.835 27.888 173.07 27.1328C173.304 26.3776 173.447 25.5833 173.499 24.75C173.577 23.9167 173.616 23.2005 173.616 22.6016C173.616 20.8828 173.473 19.1901 173.187 17.5234C172.9 15.8307 172.523 14.151 172.054 12.4844C171.924 12.0417 171.807 11.599 171.702 11.1562C171.624 10.7135 171.585 10.2708 171.585 9.82812C171.585 9.09896 171.793 8.46094 172.21 7.91406C172.653 7.36719 173.265 7.09375 174.046 7.09375C174.697 7.09375 175.296 7.35417 175.843 7.875C176.416 8.36979 176.924 9.03385 177.366 9.86719C177.809 10.6745 178.187 11.5859 178.499 12.6016C178.838 13.6172 179.124 14.6328 179.359 15.6484C179.593 16.638 179.762 17.5885 179.866 18.5C179.997 19.4115 180.075 20.1536 180.101 20.7266C180.127 20.987 180.14 21.2474 180.14 21.5078C180.14 21.7422 180.14 22.0026 180.14 22.2891Z" fill="#041621"/>
</svg>
